<?xml version="1.0" encoding="UTF-8"?>
<svg xmlns="http://www.w3.org/2000/svg" viewBox="0 0 1520 1074" width="1520" height="1074"
     style="background:#fff; font-family:Meiryo,'Yu Gothic',sans-serif;">

<defs>
  <marker id="arr" viewBox="0 0 10 10" refX="8" refY="5"
    markerWidth="5" markerHeight="5" orient="auto-start-reverse">
    <path d="M2 2L8 5L2 8" fill="none" stroke="context-stroke" stroke-width="1.2"/>
  </marker>
  <marker id="tick" viewBox="0 0 10 10" refX="5" refY="5"
    markerWidth="6" markerHeight="6" orient="auto-start-reverse">
    <line x1="5" y1="1" x2="5" y2="9" stroke="context-stroke" stroke-width="1.2"/>
  </marker>
  <pattern id="hatchPB" width="6" height="6" patternUnits="userSpaceOnUse" patternTransform="rotate(45)">
    <line x1="0" y1="0" x2="0" y2="6" stroke="#bbb" stroke-width="0.6"/>
  </pattern>
  <pattern id="hatchWood" width="4" height="4" patternUnits="userSpaceOnUse">
    <path d="M0 4 Q1 2 2 4 T4 4" stroke="#8a6a3a" stroke-width="0.4" fill="none" opacity="0.5"/>
  </pattern>
  <pattern id="hatchPly" width="8" height="8" patternUnits="userSpaceOnUse" patternTransform="rotate(30)">
    <line x1="0" y1="0" x2="0" y2="8" stroke="#a88658" stroke-width="0.5"/>
  </pattern>
  <pattern id="hatchConc" width="8" height="8" patternUnits="userSpaceOnUse">
    <circle cx="2" cy="2" r="0.5" fill="#888"/>
    <circle cx="6" cy="5" r="0.4" fill="#888"/>
    <circle cx="3" cy="6" r="0.3" fill="#888"/>
  </pattern>
</defs>
<rect x="0" y="0" width="1520" height="1074" fill="#fff"/>
<text x="20" y="30" font-size="20" font-family="Meiryo" fill="#1e2d40" font-weight="bold">施工図部品ライブラリ v2.0</text>
<text x="20" y="52" font-size="11" font-family="Meiryo" fill="#555">株式会社アート・レイズ / sekozu_parts.py — 縦断面（左）・横断面（右）対応</text>
<rect x="10" y="70" width="740" height="990" fill="none" stroke="#ccc" stroke-dasharray="4,4"/>
<text x="30" y="95" font-size="16" font-family="Meiryo" fill="#c8a96e" font-weight="bold">■ 縦断面（壁を横から切った図）</text>
<text x="30" y="130" font-size="11" font-family="Meiryo" fill="#333">H鋼 I形</text>

<!-- H鋼 H-100x100（縦断面） -->
<g class="part-hko-s">
  <rect x="50.00" y="150.00" width="100.00" height="8.00" fill="#999" fill-opacity="0.65" stroke="#1a1a1a" stroke-width="0.8"/>
  <rect x="97.00"  y="158.00" width="6.00" height="84.00" fill="#999" fill-opacity="0.65" stroke="#1a1a1a" stroke-width="0.8"/>
  <rect x="50.00" y="242.00" width="100.00" height="8.00" fill="#999" fill-opacity="0.65" stroke="#1a1a1a" stroke-width="0.8"/>
</g>
<g class="label-right">
  <line x1="150.00" y1="200.00" x2="164.00" y2="200.00" stroke="#aaa" stroke-width="0.6"/>
  <text x="166.00" y="204.00" font-size="10" fill="#555" font-family="Meiryo">H-100×100</text>
</g>

<!-- H鋼 H-150x150（縦断面） -->
<g class="part-hko-s">
  <rect x="205.00" y="150.00" width="150.00" height="10.00" fill="#999" fill-opacity="0.65" stroke="#1a1a1a" stroke-width="0.8"/>
  <rect x="276.50"  y="160.00" width="7.00" height="130.00" fill="#999" fill-opacity="0.65" stroke="#1a1a1a" stroke-width="0.8"/>
  <rect x="205.00" y="290.00" width="150.00" height="10.00" fill="#999" fill-opacity="0.65" stroke="#1a1a1a" stroke-width="0.8"/>
</g>
<g class="label-right">
  <line x1="355.00" y1="225.00" x2="369.00" y2="225.00" stroke="#aaa" stroke-width="0.6"/>
  <text x="371.00" y="229.00" font-size="10" fill="#555" font-family="Meiryo">H-150×150</text>
</g>
<text x="30" y="360" font-size="11" font-family="Meiryo" fill="#333">LGS65＋PB t12.5 壁（縦断面）</text>

<!-- H鋼 H-150x150（縦断面） -->
<g class="part-hko-s">
  <rect x="105.00" y="380.00" width="150.00" height="10.00" fill="#999" fill-opacity="0.65" stroke="#1a1a1a" stroke-width="0.8"/>
  <rect x="176.50"  y="390.00" width="7.00" height="130.00" fill="#999" fill-opacity="0.65" stroke="#1a1a1a" stroke-width="0.8"/>
  <rect x="105.00" y="520.00" width="150.00" height="10.00" fill="#999" fill-opacity="0.65" stroke="#1a1a1a" stroke-width="0.8"/>
</g>
<!-- LGSランナー LGS65（縦断面 口down） --><g class="part-lgs-runner-s"><rect x="147.50" y="530.00" width="65.00" height="1.50" fill="#333" fill-opacity="0.75" stroke="#1a1a1a" stroke-width="0.6"/><rect x="147.50" y="531.50" width="1.50" height="38.50" fill="#333" fill-opacity="0.75" stroke="#1a1a1a" stroke-width="0.6"/><rect x="211.00" y="531.50" width="1.50" height="38.50" fill="#333" fill-opacity="0.75" stroke="#1a1a1a" stroke-width="0.6"/></g>

<!-- LGSスタッド LGS65（縦断面 側面姿） -->
<g class="part-lgs-stud-s" stroke="#333" stroke-width="2.2" opacity="0.75">
  <line x1="147.00" y1="540.00" x2="147.00" y2="780.00"/>
  <line x1="212.00" y1="540.00" x2="212.00" y2="780.00"/>
</g>

<!-- PB t12.5（縦断面） -->
<g class="part-pb-s">
  <rect x="142.00" y="540.00" width="15.00" height="240.00"
        fill="#f8f8f8" stroke="#1a1a1a" stroke-width="1.2"/>
  <rect x="142.00" y="540.00" width="15.00" height="240.00" fill="url(#hatchPB)" stroke="none"/>
</g>

<!-- PB t12.5（縦断面） -->
<g class="part-pb-s">
  <rect x="213.00" y="540.00" width="15.00" height="240.00"
        fill="#f8f8f8" stroke="#1a1a1a" stroke-width="1.2"/>
  <rect x="213.00" y="540.00" width="15.00" height="240.00" fill="url(#hatchPB)" stroke="none"/>
</g>
<!-- LGSランナー LGS65（縦断面 口up） --><g class="part-lgs-runner-s"><rect x="147.50" y="778.50" width="65.00" height="1.50" fill="#333" fill-opacity="0.75" stroke="#1a1a1a" stroke-width="0.6"/><rect x="147.50" y="740.00" width="1.50" height="38.50" fill="#333" fill-opacity="0.75" stroke="#1a1a1a" stroke-width="0.6"/><rect x="211.00" y="740.00" width="1.50" height="38.50" fill="#333" fill-opacity="0.75" stroke="#1a1a1a" stroke-width="0.6"/></g>
<line x1="100" y1="782" x2="260" y2="782" stroke="#1a1a1a" stroke-width="1.2"/>
<text x="105" y="798" font-size="10" font-family="Meiryo" fill="#333">FL</text>
<g class="label-right">
  <line x1="223.00" y1="560.00" x2="237.00" y2="560.00" stroke="#aaa" stroke-width="0.6"/>
  <text x="239.00" y="564.00" font-size="10" fill="#555" font-family="Meiryo">LGS65ランナー（天）</text>
</g>
<g class="label-right">
  <line x1="162.00" y1="640.00" x2="176.00" y2="640.00" stroke="#aaa" stroke-width="0.6"/>
  <text x="178.00" y="644.00" font-size="10" fill="#555" font-family="Meiryo">LGS65スタッド</text>
</g>
<g class="label-right">
  <line x1="228.00" y1="700.00" x2="242.00" y2="700.00" stroke="#aaa" stroke-width="0.6"/>
  <text x="244.00" y="704.00" font-size="10" fill="#555" font-family="Meiryo">化粧PB t12.5</text>
</g>
<g class="label-right">
  <line x1="223.00" y1="770.00" x2="237.00" y2="770.00" stroke="#aaa" stroke-width="0.6"/>
  <text x="239.00" y="774.00" font-size="10" fill="#555" font-family="Meiryo">LGS65ランナー（床）</text>
</g>

<!-- アンカーボルト -->
<g class="part-anchor">
  <circle cx="180.00" cy="383.00" r="5" fill="none" stroke="#1a1a1a" stroke-width="1.2"/>
  <circle cx="180.00" cy="383.00" r="2" fill="#1a1a1a"/>
  <line x1="180.00" y1="377.00" x2="180.00" y2="361.00" stroke="#aaa" stroke-width="0.6"/>
  <line x1="180.00" y1="361.00" x2="152.00" y2="361.00" stroke="#aaa" stroke-width="0.6"/>
  <text x="150.00" y="358.00" text-anchor="end" font-size="10" fill="#555" font-family="Meiryo">M12アンカー</text>
</g>
<text x="430" y="360" font-size="11" font-family="Meiryo" fill="#333">木造間仕切壁（縦断面）</text>

<!-- 木材 105x105（縦断面） -->
<g class="part-wood-s">
  <rect x="447.50" y="380.00" width="105.00" height="105.00"
        fill="#efe3c8" stroke="#8a6a3a" stroke-width="1.0"/>
  <rect x="447.50" y="380.00" width="105.00" height="105.00"
        fill="url(#hatchWood)" stroke="none"/>
  <line x1="479.00" y1="395.75" x2="479.00" y2="469.25" stroke="#8a6a3a" stroke-width="0.3" opacity="0.6"/>
  <line x1="521.00" y1="395.75" x2="521.00" y2="469.25" stroke="#8a6a3a" stroke-width="0.3" opacity="0.6"/>
</g><g class="label-right">
  <line x1="552.50" y1="432.50" x2="566.50" y2="432.50" stroke="#aaa" stroke-width="0.6"/>
  <text x="568.50" y="436.50" font-size="10" fill="#555" font-family="Meiryo">胴差</text>
</g>

<g class="part-wood-s">
  <rect x="477.00" y="488.00" width="45.00" height="210.00"
        fill="#efe3c8" stroke="#8a6a3a" stroke-width="1.0"/>
  <rect x="477.00" y="488.00" width="45.00" height="210.00"
        fill="url(#hatchWood)" stroke="none"/>
</g>

<!-- 木材 105x105（縦断面） -->
<g class="part-wood-s">
  <rect x="447.50" y="700.00" width="105.00" height="105.00"
        fill="#efe3c8" stroke="#8a6a3a" stroke-width="1.0"/>
  <rect x="447.50" y="700.00" width="105.00" height="105.00"
        fill="url(#hatchWood)" stroke="none"/>
  <line x1="479.00" y1="715.75" x2="479.00" y2="789.25" stroke="#8a6a3a" stroke-width="0.3" opacity="0.6"/>
  <line x1="521.00" y1="715.75" x2="521.00" y2="789.25" stroke="#8a6a3a" stroke-width="0.3" opacity="0.6"/>
</g><g class="label-right">
  <line x1="552.50" y1="752.50" x2="566.50" y2="752.50" stroke="#aaa" stroke-width="0.6"/>
  <text x="568.50" y="756.50" font-size="10" fill="#555" font-family="Meiryo">土台</text>
</g>

<!-- PB t12.5（縦断面） -->
<g class="part-pb-s">
  <rect x="467.00" y="488.00" width="15.00" height="212.00"
        fill="#f8f8f8" stroke="#1a1a1a" stroke-width="1.2"/>
  <rect x="467.00" y="488.00" width="15.00" height="212.00" fill="url(#hatchPB)" stroke="none"/>
</g>

<!-- PB t12.5（縦断面） -->
<g class="part-pb-s">
  <rect x="533.00" y="488.00" width="15.00" height="212.00"
        fill="#f8f8f8" stroke="#1a1a1a" stroke-width="1.2"/>
  <rect x="533.00" y="488.00" width="15.00" height="212.00" fill="url(#hatchPB)" stroke="none"/>
</g>
<g class="label-right">
  <line x1="545.00" y1="590.00" x2="559.00" y2="590.00" stroke="#aaa" stroke-width="0.6"/>
  <text x="561.00" y="594.00" font-size="10" fill="#555" font-family="Meiryo">45×105 間柱</text>
</g>
<g class="label-right">
  <line x1="548.00" y1="650.00" x2="562.00" y2="650.00" stroke="#aaa" stroke-width="0.6"/>
  <text x="564.00" y="654.00" font-size="10" fill="#555" font-family="Meiryo">PB t12.5</text>
</g>
<text x="30" y="850" font-size="11" font-family="Meiryo" fill="#333">ボード類（t×4拡大）</text>

<!-- PB t12.5（縦断面） -->
<g class="part-pb-s">
  <rect x="40.00" y="870.00" width="50.00" height="130.00"
        fill="#f8f8f8" stroke="#1a1a1a" stroke-width="1.2"/>
  <rect x="40.00" y="870.00" width="50.00" height="130.00" fill="url(#hatchPB)" stroke="none"/>
</g>
<g class="label-right">
  <line x1="90.00" y1="935.00" x2="104.00" y2="935.00" stroke="#aaa" stroke-width="0.6"/>
  <text x="106.00" y="939.00" font-size="10" fill="#555" font-family="Meiryo">PB t12.5</text>
</g>

<!-- 合板 t12（縦断面） -->
<g class="part-ply-s">
  <rect x="180.00" y="870.00" width="48.00" height="130.00" fill="#f3e6cc" stroke="#6a4a20" stroke-width="1.0"/>
  <rect x="180.00" y="870.00" width="48.00" height="130.00" fill="url(#hatchPly)" stroke="none"/>
</g>
<g class="label-right">
  <line x1="228.00" y1="935.00" x2="242.00" y2="935.00" stroke="#aaa" stroke-width="0.6"/>
  <text x="244.00" y="939.00" font-size="10" fill="#555" font-family="Meiryo">合板 t12</text>
</g>

<!-- ケイカル板 t8（縦断面） -->
<g class="part-keical-s">
  <rect x="320.00" y="870.00" width="32.00" height="130.00" fill="#e8e8e6" stroke="#555" stroke-width="1.0"/>
</g>
<g class="label-right">
  <line x1="352.00" y1="935.00" x2="366.00" y2="935.00" stroke="#aaa" stroke-width="0.6"/>
  <text x="368.00" y="939.00" font-size="10" fill="#555" font-family="Meiryo">ケイカル板 t8</text>
</g>
<text x="480" y="850" font-size="11" font-family="Meiryo" fill="#333">ビス・ボルト類</text>

<!-- ビス L32 -->
<g class="part-screw" stroke="#222" stroke-width="0.6">
  <circle cx="500.00" cy="880.00" r="2.0" fill="#666"/>
  <line x1="500.00" y1="878.00" x2="500.00" y2="882.00"/>
  <rect x="500.00" y="879.40" width="32.00" height="1.20" fill="#888"/>
  <polygon points="532.00,879.40 534.00,880.00 532.00,880.60" fill="#888"/>
</g>
<g class="label-right">
  <line x1="536.00" y1="880.00" x2="550.00" y2="880.00" stroke="#aaa" stroke-width="0.6"/>
  <text x="552.00" y="884.00" font-size="10" fill="#555" font-family="Meiryo">コーススレッド L32</text>
</g>

<!-- ビス L25 -->
<g class="part-screw" stroke="#222" stroke-width="0.6">
  <circle cx="500.00" cy="910.00" r="2.0" fill="#666"/>
  <line x1="500.00" y1="908.00" x2="500.00" y2="912.00"/>
  <rect x="500.00" y="909.40" width="25.00" height="1.20" fill="#888"/>
  <polygon points="525.00,909.40 527.00,910.00 525.00,910.60" fill="#888"/>
</g>
<g class="label-right">
  <line x1="529.00" y1="910.00" x2="543.00" y2="910.00" stroke="#aaa" stroke-width="0.6"/>
  <text x="545.00" y="914.00" font-size="10" fill="#555" font-family="Meiryo">ドリルビス L25</text>
</g>

<!-- 六角ボルト M12 -->
<polygon points="525.98,963.45 520.00,966.90 514.02,963.45 514.02,956.55 520.00,953.10 525.98,956.55" fill="#888" stroke="#1a1a1a" stroke-width="0.6"/>
<circle cx="520.00" cy="960.00" r="2.41" fill="none" stroke="#1a1a1a" stroke-width="0.5"/>
<g class="label-right">
  <line x1="532.00" y1="960.00" x2="546.00" y2="960.00" stroke="#aaa" stroke-width="0.6"/>
  <text x="548.00" y="964.00" font-size="10" fill="#555" font-family="Meiryo">六角ボルト M12</text>
</g>
<rect x="770" y="70" width="740" height="990" fill="none" stroke="#ccc" stroke-dasharray="4,4"/>
<text x="790" y="95" font-size="16" font-family="Meiryo" fill="#c8a96e" font-weight="bold">■ 横断面（壁を上から切った平面詳細）</text>
<text x="790" y="140" font-size="11" font-family="Meiryo" fill="#333">LGS65＋両面PB t12.5 壁 @455（平面詳細 scale=0.8）</text>
<!-- LGSスタッド列 @455 ×5 -->
<!-- LGSスタッド LGS65（横断面 C形 口right） --><g class="part-lgs-stud-p"><rect x="855.00" y="182.00" width="1.00" height="36.00" fill="#333" fill-opacity="0.75" stroke="#1a1a1a" stroke-width="0.5"/><rect x="804.00" y="182.00" width="52.00" height="1.00" fill="#333" fill-opacity="0.75" stroke="#1a1a1a" stroke-width="0.5"/><rect x="804.00" y="217.00" width="52.00" height="1.00" fill="#333" fill-opacity="0.75" stroke="#1a1a1a" stroke-width="0.5"/><rect x="804.00" y="182.00" width="1.00" height="8.00" fill="#333" fill-opacity="0.75" stroke="#1a1a1a" stroke-width="0.5"/><rect x="804.00" y="210.00" width="1.00" height="8.00" fill="#333" fill-opacity="0.75" stroke="#1a1a1a" stroke-width="0.5"/></g>
<!-- LGSスタッド LGS65（横断面 C形 口right） --><g class="part-lgs-stud-p"><rect x="1219.00" y="182.00" width="1.00" height="36.00" fill="#333" fill-opacity="0.75" stroke="#1a1a1a" stroke-width="0.5"/><rect x="1168.00" y="182.00" width="52.00" height="1.00" fill="#333" fill-opacity="0.75" stroke="#1a1a1a" stroke-width="0.5"/><rect x="1168.00" y="217.00" width="52.00" height="1.00" fill="#333" fill-opacity="0.75" stroke="#1a1a1a" stroke-width="0.5"/><rect x="1168.00" y="182.00" width="1.00" height="8.00" fill="#333" fill-opacity="0.75" stroke="#1a1a1a" stroke-width="0.5"/><rect x="1168.00" y="210.00" width="1.00" height="8.00" fill="#333" fill-opacity="0.75" stroke="#1a1a1a" stroke-width="0.5"/></g>
<!-- LGSスタッド LGS65（横断面 C形 口right） --><g class="part-lgs-stud-p"><rect x="1583.00" y="182.00" width="1.00" height="36.00" fill="#333" fill-opacity="0.75" stroke="#1a1a1a" stroke-width="0.5"/><rect x="1532.00" y="182.00" width="52.00" height="1.00" fill="#333" fill-opacity="0.75" stroke="#1a1a1a" stroke-width="0.5"/><rect x="1532.00" y="217.00" width="52.00" height="1.00" fill="#333" fill-opacity="0.75" stroke="#1a1a1a" stroke-width="0.5"/><rect x="1532.00" y="182.00" width="1.00" height="8.00" fill="#333" fill-opacity="0.75" stroke="#1a1a1a" stroke-width="0.5"/><rect x="1532.00" y="210.00" width="1.00" height="8.00" fill="#333" fill-opacity="0.75" stroke="#1a1a1a" stroke-width="0.5"/></g>
<!-- LGSスタッド LGS65（横断面 C形 口right） --><g class="part-lgs-stud-p"><rect x="1947.00" y="182.00" width="1.00" height="36.00" fill="#333" fill-opacity="0.75" stroke="#1a1a1a" stroke-width="0.5"/><rect x="1896.00" y="182.00" width="52.00" height="1.00" fill="#333" fill-opacity="0.75" stroke="#1a1a1a" stroke-width="0.5"/><rect x="1896.00" y="217.00" width="52.00" height="1.00" fill="#333" fill-opacity="0.75" stroke="#1a1a1a" stroke-width="0.5"/><rect x="1896.00" y="182.00" width="1.00" height="8.00" fill="#333" fill-opacity="0.75" stroke="#1a1a1a" stroke-width="0.5"/><rect x="1896.00" y="210.00" width="1.00" height="8.00" fill="#333" fill-opacity="0.75" stroke="#1a1a1a" stroke-width="0.5"/></g>
<!-- LGSスタッド LGS65（横断面 C形 口right） --><g class="part-lgs-stud-p"><rect x="2311.00" y="182.00" width="1.00" height="36.00" fill="#333" fill-opacity="0.75" stroke="#1a1a1a" stroke-width="0.5"/><rect x="2260.00" y="182.00" width="52.00" height="1.00" fill="#333" fill-opacity="0.75" stroke="#1a1a1a" stroke-width="0.5"/><rect x="2260.00" y="217.00" width="52.00" height="1.00" fill="#333" fill-opacity="0.75" stroke="#1a1a1a" stroke-width="0.5"/><rect x="2260.00" y="182.00" width="1.00" height="8.00" fill="#333" fill-opacity="0.75" stroke="#1a1a1a" stroke-width="0.5"/><rect x="2260.00" y="210.00" width="1.00" height="8.00" fill="#333" fill-opacity="0.75" stroke="#1a1a1a" stroke-width="0.5"/></g>

<!-- PB t12.5（横断面 top面） -->
<g class="part-pb-p">
  <rect x="812.00" y="144.00" width="1492.00" height="30.00"
        fill="#f8f8f8" stroke="#1a1a1a" stroke-width="1.2"/>
  <rect x="812.00" y="144.00" width="1492.00" height="30.00" fill="url(#hatchPB)" stroke="none"/>
</g>

<!-- PB t12.5（横断面 bottom面） -->
<g class="part-pb-p">
  <rect x="812.00" y="226.00" width="1492.00" height="30.00"
        fill="#f8f8f8" stroke="#1a1a1a" stroke-width="1.2"/>
  <rect x="812.00" y="226.00" width="1492.00" height="30.00" fill="url(#hatchPB)" stroke="none"/>
</g>
<g class="dim-h">
  <line x1="830.00" y1="286.00" x2="1194.00" y2="286.00" stroke="#888" stroke-width="0.8" marker-start="url(#arr)" marker-end="url(#arr)"/>
  <text x="1012.00" y="283.00" text-anchor="middle" font-size="10" fill="#333" font-family="Meiryo">@455</text>
</g>
<g class="label-right">
  <line x1="2316.00" y1="200.00" x2="2330.00" y2="200.00" stroke="#aaa" stroke-width="0.6"/>
  <text x="2332.00" y="204.00" font-size="10" fill="#555" font-family="Meiryo">LGS65スタッド @455</text>
</g>
<g class="label-right">
  <line x1="2316.00" y1="154.00" x2="2330.00" y2="154.00" stroke="#aaa" stroke-width="0.6"/>
  <text x="2332.00" y="158.00" font-size="10" fill="#555" font-family="Meiryo">化粧PB t12.5</text>
</g>
<text x="790" y="330" font-size="11" font-family="Meiryo" fill="#333">H鋼（平面）— 梁を上から見下ろした姿</text>
<!-- H鋼 H-150x150（横断面） --><g class="part-hko-p"><rect x="840.00" y="310.00" width="8.00" height="120.00" fill="#999" fill-opacity="0.65" stroke="#1a1a1a" stroke-width="0.8"/><rect x="848.00" y="367.20" width="104.00" height="5.60" fill="#999" fill-opacity="0.65" stroke="#1a1a1a" stroke-width="0.8"/><rect x="952.00" y="310.00" width="8.00" height="120.00" fill="#999" fill-opacity="0.65" stroke="#1a1a1a" stroke-width="0.8"/></g><g class="label-right">
  <line x1="960.00" y1="370.00" x2="974.00" y2="370.00" stroke="#aaa" stroke-width="0.6"/>
  <text x="976.00" y="374.00" font-size="10" fill="#555" font-family="Meiryo">H-150×150</text>
</g>
<!-- H鋼 H-200x100（横断面） --><g class="part-hko-p"><rect x="1120.00" y="330.00" width="6.40" height="80.00" fill="#999" fill-opacity="0.65" stroke="#1a1a1a" stroke-width="0.8"/><rect x="1126.40" y="367.80" width="147.20" height="4.40" fill="#999" fill-opacity="0.65" stroke="#1a1a1a" stroke-width="0.8"/><rect x="1273.60" y="330.00" width="6.40" height="80.00" fill="#999" fill-opacity="0.65" stroke="#1a1a1a" stroke-width="0.8"/></g><g class="label-right">
  <line x1="1280.00" y1="370.00" x2="1294.00" y2="370.00" stroke="#aaa" stroke-width="0.6"/>
  <text x="1296.00" y="374.00" font-size="10" fill="#555" font-family="Meiryo">H-200×100</text>
</g>
<text x="790" y="450" font-size="11" font-family="Meiryo" fill="#333">木造間柱@455（平面詳細 scale=0.8）</text>
<!-- 間柱列 @455 ×5 -->

<!-- 木材 45x105（横断面） -->
<g class="part-wood-p">
  <rect x="788.00" y="492.00" width="84.00" height="36.00"
        fill="#efe3c8" stroke="#8a6a3a" stroke-width="1.0"/>
  <rect x="788.00" y="492.00" width="84.00" height="36.00"
        fill="url(#hatchWood)" stroke="none"/>
  <circle cx="830.00" cy="510.00" r="5.40" fill="none" stroke="#8a6a3a" stroke-width="0.4" opacity="0.6"/>
  <circle cx="830.00" cy="510.00" r="10.80" fill="none" stroke="#8a6a3a" stroke-width="0.3" opacity="0.5"/>
</g>

<!-- 木材 45x105（横断面） -->
<g class="part-wood-p">
  <rect x="1152.00" y="492.00" width="84.00" height="36.00"
        fill="#efe3c8" stroke="#8a6a3a" stroke-width="1.0"/>
  <rect x="1152.00" y="492.00" width="84.00" height="36.00"
        fill="url(#hatchWood)" stroke="none"/>
  <circle cx="1194.00" cy="510.00" r="5.40" fill="none" stroke="#8a6a3a" stroke-width="0.4" opacity="0.6"/>
  <circle cx="1194.00" cy="510.00" r="10.80" fill="none" stroke="#8a6a3a" stroke-width="0.3" opacity="0.5"/>
</g>

<!-- 木材 45x105（横断面） -->
<g class="part-wood-p">
  <rect x="1516.00" y="492.00" width="84.00" height="36.00"
        fill="#efe3c8" stroke="#8a6a3a" stroke-width="1.0"/>
  <rect x="1516.00" y="492.00" width="84.00" height="36.00"
        fill="url(#hatchWood)" stroke="none"/>
  <circle cx="1558.00" cy="510.00" r="5.40" fill="none" stroke="#8a6a3a" stroke-width="0.4" opacity="0.6"/>
  <circle cx="1558.00" cy="510.00" r="10.80" fill="none" stroke="#8a6a3a" stroke-width="0.3" opacity="0.5"/>
</g>

<!-- 木材 45x105（横断面） -->
<g class="part-wood-p">
  <rect x="1880.00" y="492.00" width="84.00" height="36.00"
        fill="#efe3c8" stroke="#8a6a3a" stroke-width="1.0"/>
  <rect x="1880.00" y="492.00" width="84.00" height="36.00"
        fill="url(#hatchWood)" stroke="none"/>
  <circle cx="1922.00" cy="510.00" r="5.40" fill="none" stroke="#8a6a3a" stroke-width="0.4" opacity="0.6"/>
  <circle cx="1922.00" cy="510.00" r="10.80" fill="none" stroke="#8a6a3a" stroke-width="0.3" opacity="0.5"/>
</g>

<!-- 木材 45x105（横断面） -->
<g class="part-wood-p">
  <rect x="2244.00" y="492.00" width="84.00" height="36.00"
        fill="#efe3c8" stroke="#8a6a3a" stroke-width="1.0"/>
  <rect x="2244.00" y="492.00" width="84.00" height="36.00"
        fill="url(#hatchWood)" stroke="none"/>
  <circle cx="2286.00" cy="510.00" r="5.40" fill="none" stroke="#8a6a3a" stroke-width="0.4" opacity="0.6"/>
  <circle cx="2286.00" cy="510.00" r="10.80" fill="none" stroke="#8a6a3a" stroke-width="0.3" opacity="0.5"/>
</g>

<!-- PB t12.5（横断面 top面） -->
<g class="part-pb-p">
  <rect x="800.00" y="438.00" width="450.00" height="30.00"
        fill="#f8f8f8" stroke="#1a1a1a" stroke-width="1.2"/>
  <rect x="800.00" y="438.00" width="450.00" height="30.00" fill="url(#hatchPB)" stroke="none"/>
</g>

<!-- PB t12.5（横断面 bottom面） -->
<g class="part-pb-p">
  <rect x="800.00" y="552.00" width="450.00" height="30.00"
        fill="#f8f8f8" stroke="#1a1a1a" stroke-width="1.2"/>
  <rect x="800.00" y="552.00" width="450.00" height="30.00" fill="url(#hatchPB)" stroke="none"/>
</g>
<g class="dim-h">
  <line x1="830.00" y1="590.00" x2="1194.00" y2="590.00" stroke="#888" stroke-width="0.8" marker-start="url(#arr)" marker-end="url(#arr)"/>
  <text x="1012.00" y="587.00" text-anchor="middle" font-size="10" fill="#333" font-family="Meiryo">@455</text>
</g>
<g class="label-right">
  <line x1="2306.00" y1="510.00" x2="2320.00" y2="510.00" stroke="#aaa" stroke-width="0.6"/>
  <text x="2322.00" y="514.00" font-size="10" fill="#555" font-family="Meiryo">45×105 間柱</text>
</g>
<text x="790" y="650" font-size="11" font-family="Meiryo" fill="#333">LGS C形断面（単体・口の向き）</text>
<!-- LGSスタッド LGS65（横断面 C形 口right） --><g class="part-lgs-stud-p"><rect x="909.25" y="633.75" width="2.00" height="112.50" fill="#333" fill-opacity="0.75" stroke="#1a1a1a" stroke-width="0.5"/><rect x="748.75" y="633.75" width="162.50" height="2.00" fill="#333" fill-opacity="0.75" stroke="#1a1a1a" stroke-width="0.5"/><rect x="748.75" y="744.25" width="162.50" height="2.00" fill="#333" fill-opacity="0.75" stroke="#1a1a1a" stroke-width="0.5"/><rect x="748.75" y="633.75" width="2.00" height="25.00" fill="#333" fill-opacity="0.75" stroke="#1a1a1a" stroke-width="0.5"/><rect x="748.75" y="721.25" width="2.00" height="25.00" fill="#333" fill-opacity="0.75" stroke="#1a1a1a" stroke-width="0.5"/></g>
<g class="label-top">
  <line x1="830.00" y1="633.75" x2="830.00" y2="617.75" stroke="#aaa" stroke-width="0.6"/>
  <text x="830.00" y="614.75" text-anchor="middle" font-size="10" fill="#555" font-family="Meiryo">LGS65 口→</text>
</g>
<!-- LGSスタッド LGS65（横断面 C形 口left） --><g class="part-lgs-stud-p"><rect x="868.75" y="633.75" width="2.00" height="112.50" fill="#333" fill-opacity="0.75" stroke="#1a1a1a" stroke-width="0.5"/><rect x="868.75" y="633.75" width="162.50" height="2.00" fill="#333" fill-opacity="0.75" stroke="#1a1a1a" stroke-width="0.5"/><rect x="868.75" y="744.25" width="162.50" height="2.00" fill="#333" fill-opacity="0.75" stroke="#1a1a1a" stroke-width="0.5"/><rect x="1029.25" y="633.75" width="2.00" height="25.00" fill="#333" fill-opacity="0.75" stroke="#1a1a1a" stroke-width="0.5"/><rect x="1029.25" y="721.25" width="2.00" height="25.00" fill="#333" fill-opacity="0.75" stroke="#1a1a1a" stroke-width="0.5"/></g>
<g class="label-top">
  <line x1="950.00" y1="633.75" x2="950.00" y2="617.75" stroke="#aaa" stroke-width="0.6"/>
  <text x="950.00" y="614.75" text-anchor="middle" font-size="10" fill="#555" font-family="Meiryo">LGS65 口←</text>
</g>
<!-- LGSスタッド LGS100（横断面 C形 口right） --><g class="part-lgs-stud-p"><rect x="1213.00" y="627.50" width="2.00" height="125.00" fill="#333" fill-opacity="0.75" stroke="#1a1a1a" stroke-width="0.5"/><rect x="965.00" y="627.50" width="250.00" height="2.00" fill="#333" fill-opacity="0.75" stroke="#1a1a1a" stroke-width="0.5"/><rect x="965.00" y="750.50" width="250.00" height="2.00" fill="#333" fill-opacity="0.75" stroke="#1a1a1a" stroke-width="0.5"/><rect x="965.00" y="627.50" width="2.00" height="25.00" fill="#333" fill-opacity="0.75" stroke="#1a1a1a" stroke-width="0.5"/><rect x="965.00" y="727.50" width="2.00" height="25.00" fill="#333" fill-opacity="0.75" stroke="#1a1a1a" stroke-width="0.5"/></g>
<g class="label-top">
  <line x1="1090.00" y1="627.50" x2="1090.00" y2="611.50" stroke="#aaa" stroke-width="0.6"/>
  <text x="1090.00" y="608.50" text-anchor="middle" font-size="10" fill="#555" font-family="Meiryo">LGS100 口→</text>
</g>
<text x="790" y="820" font-size="11" font-family="Meiryo" fill="#333">木材 単体断面（平面）</text>

<!-- 木材 45x45（横断面） -->
<g class="part-wood-p">
  <rect x="773.75" y="823.75" width="112.50" height="112.50"
        fill="#efe3c8" stroke="#8a6a3a" stroke-width="1.0"/>
  <rect x="773.75" y="823.75" width="112.50" height="112.50"
        fill="url(#hatchWood)" stroke="none"/>
  <circle cx="830.00" cy="880.00" r="16.88" fill="none" stroke="#8a6a3a" stroke-width="0.4" opacity="0.6"/>
  <circle cx="830.00" cy="880.00" r="33.75" fill="none" stroke="#8a6a3a" stroke-width="0.3" opacity="0.5"/>
</g><g class="label-right">
  <line x1="886.25" y1="880.00" x2="900.25" y2="880.00" stroke="#aaa" stroke-width="0.6"/>
  <text x="902.25" y="884.00" font-size="10" fill="#555" font-family="Meiryo">45×45</text>
</g>

<!-- 木材 45x105（横断面） -->
<g class="part-wood-p">
  <rect x="838.75" y="823.75" width="262.50" height="112.50"
        fill="#efe3c8" stroke="#8a6a3a" stroke-width="1.0"/>
  <rect x="838.75" y="823.75" width="262.50" height="112.50"
        fill="url(#hatchWood)" stroke="none"/>
  <circle cx="970.00" cy="880.00" r="16.88" fill="none" stroke="#8a6a3a" stroke-width="0.4" opacity="0.6"/>
  <circle cx="970.00" cy="880.00" r="33.75" fill="none" stroke="#8a6a3a" stroke-width="0.3" opacity="0.5"/>
</g><g class="label-right">
  <line x1="1101.25" y1="880.00" x2="1115.25" y2="880.00" stroke="#aaa" stroke-width="0.6"/>
  <text x="1117.25" y="884.00" font-size="10" fill="#555" font-family="Meiryo">45×105</text>
</g>

<!-- 木材 105x105（横断面） -->
<g class="part-wood-p">
  <rect x="1038.75" y="748.75" width="262.50" height="262.50"
        fill="#efe3c8" stroke="#8a6a3a" stroke-width="1.0"/>
  <rect x="1038.75" y="748.75" width="262.50" height="262.50"
        fill="url(#hatchWood)" stroke="none"/>
  <circle cx="1170.00" cy="880.00" r="39.38" fill="none" stroke="#8a6a3a" stroke-width="0.4" opacity="0.6"/>
  <circle cx="1170.00" cy="880.00" r="78.75" fill="none" stroke="#8a6a3a" stroke-width="0.3" opacity="0.5"/>
</g><g class="label-right">
  <line x1="1301.25" y1="880.00" x2="1315.25" y2="880.00" stroke="#aaa" stroke-width="0.6"/>
  <text x="1317.25" y="884.00" font-size="10" fill="#555" font-family="Meiryo">105×105 柱</text>
</g>
<text x="790" y="1000" font-size="11" font-family="Meiryo" fill="#333">■ 凡例</text>
<rect x="800" y="1020" width="20" height="9" fill="#999" fill-opacity="0.65"/><text x="824" y="1029" font-size="10" fill="#555">H鋼（既存）</text>
<rect x="920" y="1020" width="20" height="8" fill="#333" fill-opacity="0.75"/><text x="944" y="1028" font-size="10" fill="#555">LGS（新設）</text>
<rect x="1040" y="1020" width="20" height="9" fill="#f8f8f8" stroke="#1a1a1a" stroke-width="1.0"/><text x="1064" y="1029" font-size="10" fill="#555">PB＋クロス</text>
<rect x="1160" y="1020" width="20" height="9" fill="#efe3c8" stroke="#8a6a3a" stroke-width="1.0"/><text x="1184" y="1029" font-size="10" fill="#555">木材</text>
</svg>