<svg xmlns="http://www.w3.org/2000/svg" viewBox="0 0 1485 1050" font-family="'Noto Sans CJK JP','Noto Sans JP','Yu Gothic','Meiryo',sans-serif">
<defs><marker id="dimS" markerWidth="11" markerHeight="11" refX="2" refY="5" orient="auto"><path d="M8,2 L2,5 L8,8" fill="none" stroke="#c0392b" stroke-width="1.1"/></marker><marker id="dimE" markerWidth="11" markerHeight="11" refX="8" refY="5" orient="auto"><path d="M2,2 L8,5 L2,8" fill="none" stroke="#c0392b" stroke-width="1.1"/></marker><pattern id="col" width="8" height="8" patternUnits="userSpaceOnUse" patternTransform="rotate(45)"><rect width="8" height="8" fill="#d4dde4"/><line x1="0" y1="0" x2="0" y2="8" stroke="#5f7c8c" stroke-width="1.6"/></pattern><pattern id="colside" width="8" height="8" patternUnits="userSpaceOnUse" patternTransform="rotate(-45)"><rect width="8" height="8" fill="#e7eef3"/><line x1="0" y1="0" x2="0" y2="8" stroke="#7e98a8" stroke-width="1.3"/></pattern></defs>
<text x="32" y="42" font-size="22" font-weight="bold" fill="#1a2a3a">大分リハビリテーション病院 一般撮影室 壁・天井クロス割付図① 展開図（サンゲツ FE）</text>
<text x="32" y="65" font-size="13" fill="#555">壁＝縦貼り（短冊 巾920×高さCH2790＋上下しろ）／開口は控除し現場カット／各面は正面視・見かけの縦線のみ表示（B面の壁柱巻込で実材が増える根拠は②）</text>
<text x="32.0" y="110.0" font-size="15" font-weight="bold" fill="#a8600a">A面 操作室側　FE-76751</text>
<text x="32.0" y="128.0" font-size="12.5" fill="#7a4a00">縦貼り4短冊／柄合わせ要(タテ642)</text>
<rect x="32.0" y="140.0" width="488.4" height="376.7" fill="#eaf3fa" stroke="#2c3e50" stroke-width="2.4"/>
<rect x="156.2" y="140.0" width="124.2" height="376.7" fill="#dceaf5"/>
<rect x="404.6" y="140.0" width="115.8" height="376.7" fill="#dceaf5"/>
<line x1="156.2" y1="140.0" x2="156.2" y2="516.7" stroke="#c0392b" stroke-width="1.1" stroke-dasharray="7 4"/>
<line x1="280.4" y1="140.0" x2="280.4" y2="516.7" stroke="#c0392b" stroke-width="1.1" stroke-dasharray="7 4"/>
<line x1="404.6" y1="140.0" x2="404.6" y2="516.7" stroke="#c0392b" stroke-width="1.1" stroke-dasharray="7 4"/>
<rect x="178.9" y="285.8" width="114.8" height="114.8" fill="#fff" stroke="#2a6da3" stroke-width="1.6"/>
<text x="236.3" y="347.2" font-size="12" fill="#2a6da3" text-anchor="middle">中連窓850</text>
<rect x="376.0" y="243.3" width="131.0" height="273.4" fill="#fff" stroke="#d77f1a" stroke-width="1.6"/>
<text x="441.5" y="384.0" font-size="12" fill="#d77f1a" text-anchor="middle">操作室ドア970</text>
<text x="94.1" y="156.0" font-size="13" fill="#c0392b" text-anchor="middle" font-weight="bold">①</text>
<text x="218.3" y="156.0" font-size="13" fill="#c0392b" text-anchor="middle" font-weight="bold">②</text>
<text x="342.5" y="156.0" font-size="13" fill="#c0392b" text-anchor="middle" font-weight="bold">③</text>
<text x="462.5" y="156.0" font-size="13" fill="#c0392b" text-anchor="middle" font-weight="bold">④</text>
<line x1="32.0" y1="538.7" x2="520.4" y2="538.7" stroke="#c0392b" stroke-width="0.9" marker-start="url(#dimS)" marker-end="url(#dimE)"/>
<text x="276.2" y="533.7" font-size="13" fill="#c0392b" text-anchor="middle">3618</text>
<text x="560.4" y="110.0" font-size="15" font-weight="bold" fill="#a8600a">B面 空室側　FE-76109</text>
<text x="560.4" y="128.0" font-size="12.5" fill="#7a4a00">正面視 幅5073／920は奥行(柱側面459×2)を巻込んで計測＝点線位置／③④の継ぎは柱側面＝②参照</text>
<rect x="560.4" y="140.0" width="684.9" height="376.7" fill="#eaf3fa" stroke="#2c3e50" stroke-width="2.4"/>
<rect x="684.6" y="140.0" width="62.2" height="376.7" fill="#dceaf5"/>
<rect x="824.9" y="140.0" width="108.4" height="376.7" fill="#dceaf5"/>
<rect x="1057.5" y="140.0" width="124.2" height="376.7" fill="#dceaf5"/>
<rect x="734.4" y="140.0" width="90.5" height="376.7" fill="url(#col)" stroke="#2c3e50" stroke-width="1.6"/>
<line x1="684.6" y1="140.0" x2="684.6" y2="516.7" stroke="#c0392b" stroke-width="1.1" stroke-dasharray="7 4"/>
<line x1="746.9" y1="140.0" x2="746.9" y2="516.7" stroke="#c0392b" stroke-width="1.1" stroke-dasharray="7 4"/>
<line x1="933.3" y1="140.0" x2="933.3" y2="516.7" stroke="#c0392b" stroke-width="1.1" stroke-dasharray="7 4"/>
<line x1="1057.5" y1="140.0" x2="1057.5" y2="516.7" stroke="#c0392b" stroke-width="1.1" stroke-dasharray="7 4"/>
<line x1="1181.7" y1="140.0" x2="1181.7" y2="516.7" stroke="#c0392b" stroke-width="1.1" stroke-dasharray="7 4"/>
<rect x="827.7" y="243.3" width="121.5" height="273.4" fill="#fff" stroke="#d77f1a" stroke-width="1.6"/>
<text x="888.5" y="384.0" font-size="12" fill="#d77f1a" text-anchor="middle">ドア900</text>
<text x="779.7" y="253.0" font-size="13" fill="#2c3e50" text-anchor="middle" font-weight="bold">壁柱</text>
<text x="779.7" y="268.0" font-size="11" fill="#2c3e50" text-anchor="middle">670</text>
<text x="622.5" y="156.0" font-size="13" fill="#c0392b" text-anchor="middle" font-weight="bold">①</text>
<text x="715.7" y="156.0" font-size="13" fill="#c0392b" text-anchor="middle" font-weight="bold">②</text>
<text x="785.9" y="156.0" font-size="13" fill="#c0392b" text-anchor="middle" font-weight="bold">③</text>
<text x="879.1" y="156.0" font-size="13" fill="#c0392b" text-anchor="middle" font-weight="bold">④</text>
<text x="995.4" y="156.0" font-size="13" fill="#c0392b" text-anchor="middle" font-weight="bold">⑤</text>
<text x="1119.6" y="156.0" font-size="13" fill="#c0392b" text-anchor="middle" font-weight="bold">⑥</text>
<text x="1213.5" y="156.0" font-size="13" fill="#c0392b" text-anchor="middle" font-weight="bold">⑦</text>
<line x1="560.4" y1="538.7" x2="1245.3" y2="538.7" stroke="#c0392b" stroke-width="0.9" marker-start="url(#dimS)" marker-end="url(#dimE)"/>
<text x="902.9" y="533.7" font-size="13" fill="#c0392b" text-anchor="middle">5073</text>
<line x1="540.4" y1="140.0" x2="540.4" y2="516.7" stroke="#c0392b" stroke-width="0.9" marker-start="url(#dimS)" marker-end="url(#dimE)"/>
<text x="532.4" y="328.3" font-size="13" fill="#c0392b" transform="rotate(-90 532.4 328.3)" text-anchor="middle">2790</text>
<text x="32.0" y="580.0" font-size="15" font-weight="bold" fill="#a8600a">C面 廊下側　FE-76251</text>
<text x="32.0" y="598.0" font-size="12.5" fill="#7a4a00">縦貼り4短冊／無地貼可</text>
<rect x="32.0" y="610.0" width="488.4" height="376.7" fill="#eaf3fa" stroke="#2c3e50" stroke-width="2.4"/>
<rect x="156.2" y="610.0" width="124.2" height="376.7" fill="#dceaf5"/>
<rect x="404.6" y="610.0" width="115.8" height="376.7" fill="#dceaf5"/>
<line x1="156.2" y1="610.0" x2="156.2" y2="986.7" stroke="#c0392b" stroke-width="1.1" stroke-dasharray="7 4"/>
<line x1="280.4" y1="610.0" x2="280.4" y2="986.7" stroke="#c0392b" stroke-width="1.1" stroke-dasharray="7 4"/>
<line x1="404.6" y1="610.0" x2="404.6" y2="986.7" stroke="#c0392b" stroke-width="1.1" stroke-dasharray="7 4"/>
<rect x="334.5" y="713.3" width="172.8" height="273.4" fill="#fff" stroke="#d77f1a" stroke-width="1.6"/>
<text x="420.9" y="854.0" font-size="12" fill="#d77f1a" text-anchor="middle">親子ドア1280</text>
<text x="94.1" y="626.0" font-size="13" fill="#c0392b" text-anchor="middle" font-weight="bold">①</text>
<text x="218.3" y="626.0" font-size="13" fill="#c0392b" text-anchor="middle" font-weight="bold">②</text>
<text x="342.5" y="626.0" font-size="13" fill="#c0392b" text-anchor="middle" font-weight="bold">③</text>
<text x="462.5" y="626.0" font-size="13" fill="#c0392b" text-anchor="middle" font-weight="bold">④</text>
<line x1="32.0" y1="1008.7" x2="520.4" y2="1008.7" stroke="#c0392b" stroke-width="0.9" marker-start="url(#dimS)" marker-end="url(#dimE)"/>
<text x="276.2" y="1003.7" font-size="13" fill="#c0392b" text-anchor="middle">3618</text>
<text x="560.4" y="580.0" font-size="15" font-weight="bold" fill="#a8600a">D面 受付側　FE-76728</text>
<text x="560.4" y="598.0" font-size="12.5" fill="#7a4a00">縦貼り6短冊／ステップ柄合わせ要(タテ321)</text>
<rect x="560.4" y="610.0" width="684.9" height="376.7" fill="#eaf3fa" stroke="#2c3e50" stroke-width="2.4"/>
<rect x="684.6" y="610.0" width="124.2" height="376.7" fill="#dceaf5"/>
<rect x="933.0" y="610.0" width="124.2" height="376.7" fill="#dceaf5"/>
<rect x="1181.4" y="610.0" width="63.9" height="376.7" fill="#dceaf5"/>
<line x1="684.6" y1="610.0" x2="684.6" y2="986.7" stroke="#c0392b" stroke-width="1.1" stroke-dasharray="7 4"/>
<line x1="808.8" y1="610.0" x2="808.8" y2="986.7" stroke="#c0392b" stroke-width="1.1" stroke-dasharray="7 4"/>
<line x1="933.0" y1="610.0" x2="933.0" y2="986.7" stroke="#c0392b" stroke-width="1.1" stroke-dasharray="7 4"/>
<line x1="1057.2" y1="610.0" x2="1057.2" y2="986.7" stroke="#c0392b" stroke-width="1.1" stroke-dasharray="7 4"/>
<line x1="1181.4" y1="610.0" x2="1181.4" y2="986.7" stroke="#c0392b" stroke-width="1.1" stroke-dasharray="7 4"/>
<text x="622.5" y="626.0" font-size="13" fill="#c0392b" text-anchor="middle" font-weight="bold">①</text>
<text x="746.7" y="626.0" font-size="13" fill="#c0392b" text-anchor="middle" font-weight="bold">②</text>
<text x="870.9" y="626.0" font-size="13" fill="#c0392b" text-anchor="middle" font-weight="bold">③</text>
<text x="995.1" y="626.0" font-size="13" fill="#c0392b" text-anchor="middle" font-weight="bold">④</text>
<text x="1119.3" y="626.0" font-size="13" fill="#c0392b" text-anchor="middle" font-weight="bold">⑤</text>
<text x="1213.4" y="626.0" font-size="13" fill="#c0392b" text-anchor="middle" font-weight="bold">⑥</text>
<line x1="560.4" y1="1008.7" x2="1245.3" y2="1008.7" stroke="#c0392b" stroke-width="0.9" marker-start="url(#dimS)" marker-end="url(#dimE)"/>
<text x="902.9" y="1003.7" font-size="13" fill="#c0392b" text-anchor="middle">5073</text>
<line x1="540.4" y1="610.0" x2="540.4" y2="986.7" stroke="#c0392b" stroke-width="0.9" marker-start="url(#dimS)" marker-end="url(#dimE)"/>
<text x="532.4" y="798.3" font-size="13" fill="#c0392b" transform="rotate(-90 532.4 798.3)" text-anchor="middle">2790</text>
</svg>